<svg width="24" height="24" viewBox="0 0 24 24" fill="none" xmlns="http://www.w3.org/2000/svg">
    <path d="M12.5007 2C12.8362 2.00006 13.1652 2.09326 13.451 2.26924C13.7367 2.44522 13.968 2.69707 14.1192 2.99675C14.2703 3.29644 14.3353 3.6322 14.307 3.96667C14.2787 4.30113 14.1581 4.62117 13.9588 4.89116L15.8371 6.77007L17.011 7.9415H20.7283C21.3811 7.9415 21.9184 8.43402 21.9932 9.06667L22 9.21633V19.7279C22 19.8949 21.9671 20.0604 21.9032 20.2147C21.8393 20.369 21.7456 20.5093 21.6275 20.6274C21.5094 20.7455 21.3692 20.8392 21.2149 20.9032C21.0606 20.9671 20.8953 21 20.7283 21H4.27174C4.10474 21 3.93936 20.9671 3.78507 20.9032C3.63077 20.8392 3.49058 20.7455 3.37249 20.6274C3.25439 20.5093 3.16072 20.369 3.09681 20.2147C3.03289 20.0604 3 19.8949 3 19.7279V9.21497C3 8.51293 3.56854 7.94286 4.27174 7.94286H7.99177L11.0412 4.89116C10.8413 4.62121 10.7203 4.30096 10.6917 3.9662C10.6632 3.63143 10.7283 3.29531 10.8797 2.9954C11.031 2.69548 11.2628 2.44356 11.5491 2.26779C11.8353 2.09202 12.1648 1.9993 12.5007 2ZM5.91209 16.3333H5.89849C5.6319 16.3333 5.37619 16.5687 5.38843 16.8435C5.39054 16.9778 5.44481 17.106 5.53975 17.201C5.6347 17.296 5.76287 17.3503 5.89713 17.3524H13.3317C13.6759 17.3524 14.0213 17.3605 14.3655 17.3524H14.3791C14.6456 17.3524 14.9027 17.1211 14.8905 16.8435C14.888 16.709 14.8335 16.5806 14.7384 16.4855C14.6432 16.3903 14.5149 16.3358 14.3804 16.3333H6.94581C6.60169 16.3333 6.25621 16.3252 5.91209 16.3333ZM6.68738 13.9578L5.92025 13.9605H5.89713C5.6319 13.9605 5.37619 14.1946 5.38843 14.4694C5.39018 14.6039 5.4443 14.7325 5.53928 14.8277C5.63427 14.923 5.76264 14.9775 5.89713 14.9796H17.0626C17.5741 14.9796 18.0868 14.9891 18.5996 14.9796H18.6214C18.8866 14.9796 19.1423 14.7456 19.1301 14.4694C19.128 14.3351 19.0737 14.2069 18.9788 14.1119C18.8838 14.0169 18.7556 13.9626 18.6214 13.9605H7.45587C6.94445 13.9605 6.43167 13.951 5.91889 13.9605L6.68738 13.9578ZM12.2599 11.5864H5.89577C5.63054 11.5864 5.37483 11.819 5.38707 12.0952C5.40067 12.3701 5.6115 12.6041 5.89577 12.6041H12.2586C12.5238 12.6041 12.7795 12.3701 12.7673 12.0952C12.7652 11.9609 12.7109 11.8327 12.6159 11.7378C12.521 11.6428 12.3928 11.5885 12.2586 11.5864H12.2599ZM13.1386 5.51157C12.7282 5.6655 12.2759 5.6655 11.8655 5.51157L9.87966 7.4966L9.43353 7.9415H15.5678L13.6731 6.0449L13.14 5.51293L13.1386 5.51157Z" fill="#616D7E"/>
</svg>
